{"asset":{"generator":"3D Builder","version":"2.0"},"scene":0,"scenes":[{"nodes":[0,1,2]}],"nodes":[{"mesh":0,"matrix":[1,0,0,0,0,-1.1920928955078125E-7,-0.99999988079071045,0,0,0.99999988079071045,-1.1920928955078125E-7,0,0,0.01993899792432785,-2.37691399895823E-9,1]},{"mesh":1,"matrix":[0.21058268845081329,0,0,0,0,-2.8555421138776182E-8,-0.23954020440578461,0,0,0.32444170117378235,-3.8676468250287144E-8,0,-0.0076901190914213657,0.019938999786973,0.018123392015695572,1]},{"mesh":2,"matrix":[0.21058268845081329,0,0,0,0,-2.8555421138776182E-8,-0.23954020440578461,0,0,0.32444170117378235,-3.8676468250287144E-8,0,0.0077626043930649757,0.019938999786973,0.018123392015695572,1]}],"meshes":[{"primitives":[{"attributes":{"POSITION":0,"COLOR_0":3},"mode":4,"indices":6},{"attributes":{"POSITION":1,"COLOR_0":4},"mode":4,"indices":7},{"attributes":{"POSITION":2,"COLOR_0":5},"mode":4,"indices":8}]},{"primitives":[{"attributes":{"POSITION":9,"COLOR_0":10},"mode":4,"indices":11}]},{"primitives":[{"attributes":{"POSITION":12,"COLOR_0":13},"mode":4,"indices":14}]}],"accessors":[{"bufferView":0,"byteOffset":0,"count":712,"componentType":5126,"type":"VEC3","min":[-0.018499327823519707,-0.019987223669886589,-0.019938999786973],"max":[0.018499327823519707,0.019987223669886589,0.019938999786973]},{"bufferView":0,"byteOffset":8544,"count":285,"componentType":5126,"type":"VEC3","min":[0.014907225035130978,-0.019987223669886589,-0.018451102077960968],"max":[0.019987223669886589,0.019987223669886589,0.018451102077960968]},{"bufferView":0,"byteOffset":11964,"count":285,"componentType":5126,"type":"VEC3","min":[-0.019987223669886589,-0.019987223669886589,-0.018451102077960968],"max":[-0.014907222241163254,0.019987223669886589,0.018451102077960968]},{"bufferView":1,"byteOffset":0,"count":712,"componentType":5121,"type":"VEC4","normalized":true},{"bufferView":1,"byteOffset":2848,"count":285,"componentType":5121,"type":"VEC4","normalized":true},{"bufferView":1,"byteOffset":3988,"count":285,"componentType":5121,"type":"VEC4","normalized":true},{"bufferView":2,"byteOffset":0,"count":3888,"componentType":5125,"type":"SCALAR"},{"bufferView":2,"byteOffset":15552,"count":1512,"componentType":5125,"type":"SCALAR"},{"bufferView":2,"byteOffset":21600,"count":1512,"componentType":5125,"type":"SCALAR"},{"bufferView":3,"byteOffset":0,"count":1154,"componentType":5126,"type":"VEC3","min":[-0.019987223669886589,-0.019987223669886589,-0.019938999786973],"max":[0.019987223669886589,0.019987223669886589,0.019938999786973]},{"bufferView":4,"byteOffset":0,"count":1154,"componentType":5121,"type":"VEC4","normalized":true},{"bufferView":5,"byteOffset":0,"count":6912,"componentType":5125,"type":"SCALAR"},{"bufferView":6,"byteOffset":0,"count":1154,"componentType":5126,"type":"VEC3","min":[-0.019987223669886589,-0.019987223669886589,-0.019938999786973],"max":[0.019987223669886589,0.019987223669886589,0.019938999786973]},{"bufferView":7,"byteOffset":0,"count":1154,"componentType":5121,"type":"VEC4","normalized":true},{"bufferView":8,"byteOffset":0,"count":6912,"componentType":5125,"type":"SCALAR"}],"bufferViews":[{"buffer":0,"byteOffset":0,"byteLength":15384,"byteStride":12,"target":34962},{"buffer":0,"byteOffset":15384,"byteLength":5128,"byteStride":4,"target":34962},{"buffer":0,"byteOffset":20512,"byteLength":27648,"target":34963},{"buffer":0,"byteOffset":48160,"byteLength":13848,"byteStride":12,"target":34962},{"buffer":0,"byteOffset":62008,"byteLength":4616,"byteStride":4,"target":34962},{"buffer":0,"byteOffset":66624,"byteLength":27648,"target":34963},{"buffer":0,"byteOffset":94272,"byteLength":13848,"byteStride":12,"target":34962},{"buffer":0,"byteOffset":108120,"byteLength":4616,"byteStride":4,"target":34962},{"buffer":0,"byteOffset":112736,"byteLength":27648,"target":34963}],"buffers":[{"byteLength":140384,"uri":"cubo 1.bin"}]}